<svg class="rich-terminal" viewBox="0 0 1726 977.1999999999999" xmlns="http://www.w3.org/2000/svg">
    <!-- Generated with Rich https://www.textualize.io -->
    <style>

    @font-face {
        font-family: "Fira Code";
        src: local("FiraCode-Regular"),
                url("https://cdnjs.cloudflare.com/ajax/libs/firacode/6.2.0/woff2/FiraCode-Regular.woff2") format("woff2"),
                url("https://cdnjs.cloudflare.com/ajax/libs/firacode/6.2.0/woff/FiraCode-Regular.woff") format("woff");
        font-style: normal;
        font-weight: 400;
    }
    @font-face {
        font-family: "Fira Code";
        src: local("FiraCode-Bold"),
                url("https://cdnjs.cloudflare.com/ajax/libs/firacode/6.2.0/woff2/FiraCode-Bold.woff2") format("woff2"),
                url("https://cdnjs.cloudflare.com/ajax/libs/firacode/6.2.0/woff/FiraCode-Bold.woff") format("woff");
        font-style: bold;
        font-weight: 700;
    }

    .terminal-1381992683-matrix {
        font-family: Fira Code, monospace;
        font-size: 20px;
        line-height: 24.4px;
        font-variant-east-asian: full-width;
    }

    .terminal-1381992683-title {
        font-size: 18px;
        font-weight: bold;
        font-family: arial;
    }

    .terminal-1381992683-r1 { fill: #c5c8c6 }
.terminal-1381992683-r2 { fill: #fea62b }
.terminal-1381992683-r3 { fill: #a5a5a5 }
.terminal-1381992683-r4 { fill: #1e1e1e }
.terminal-1381992683-r5 { fill: #0178d4 }
.terminal-1381992683-r6 { fill: #ff0000 }
.terminal-1381992683-r7 { fill: #ffff00 }
.terminal-1381992683-r8 { fill: #008000 }
.terminal-1381992683-r9 { fill: #777777 }
.terminal-1381992683-r10 { fill: #e0e0e0 }
.terminal-1381992683-r11 { fill: #121212 }
.terminal-1381992683-r12 { fill: #797979 }
.terminal-1381992683-r13 { fill: #885c1e }
.terminal-1381992683-r14 { fill: #e0e0e0;font-weight: bold }
.terminal-1381992683-r15 { fill: #9aa6b0 }
.terminal-1381992683-r16 { fill: #9e9e9e }
.terminal-1381992683-r17 { fill: #f4005f }
.terminal-1381992683-r18 { fill: #9b9b9b }
.terminal-1381992683-r19 { fill: #f4005f;font-weight: bold }
.terminal-1381992683-r20 { fill: #412f17 }
.terminal-1381992683-r21 { fill: #646464 }
.terminal-1381992683-r22 { fill: #495259 }
.terminal-1381992683-r23 { fill: #ffa62b;font-weight: bold }
    </style>

    <defs>
    <clipPath id="terminal-1381992683-clip-terminal">
      <rect x="0" y="0" width="1707.0" height="926.1999999999999" />
    </clipPath>
    <clipPath id="terminal-1381992683-line-0">
    <rect x="0" y="1.5" width="1708" height="24.65"/>
            </clipPath>
<clipPath id="terminal-1381992683-line-1">
    <rect x="0" y="25.9" width="1708" height="24.65"/>
            </clipPath>
<clipPath id="terminal-1381992683-line-2">
    <rect x="0" y="50.3" width="1708" height="24.65"/>
            </clipPath>
<clipPath id="terminal-1381992683-line-3">
    <rect x="0" y="74.7" width="1708" height="24.65"/>
            </clipPath>
<clipPath id="terminal-1381992683-line-4">
    <rect x="0" y="99.1" width="1708" height="24.65"/>
            </clipPath>
<clipPath id="terminal-1381992683-line-5">
    <rect x="0" y="123.5" width="1708" height="24.65"/>
            </clipPath>
<clipPath id="terminal-1381992683-line-6">
    <rect x="0" y="147.9" width="1708" height="24.65"/>
            </clipPath>
<clipPath id="terminal-1381992683-line-7">
    <rect x="0" y="172.3" width="1708" height="24.65"/>
            </clipPath>
<clipPath id="terminal-1381992683-line-8">
    <rect x="0" y="196.7" width="1708" height="24.65"/>
            </clipPath>
<clipPath id="terminal-1381992683-line-9">
    <rect x="0" y="221.1" width="1708" height="24.65"/>
            </clipPath>
<clipPath id="terminal-1381992683-line-10">
    <rect x="0" y="245.5" width="1708" height="24.65"/>
            </clipPath>
<clipPath id="terminal-1381992683-line-11">
    <rect x="0" y="269.9" width="1708" height="24.65"/>
            </clipPath>
<clipPath id="terminal-1381992683-line-12">
    <rect x="0" y="294.3" width="1708" height="24.65"/>
            </clipPath>
<clipPath id="terminal-1381992683-line-13">
    <rect x="0" y="318.7" width="1708" height="24.65"/>
            </clipPath>
<clipPath id="terminal-1381992683-line-14">
    <rect x="0" y="343.1" width="1708" height="24.65"/>
            </clipPath>
<clipPath id="terminal-1381992683-line-15">
    <rect x="0" y="367.5" width="1708" height="24.65"/>
            </clipPath>
<clipPath id="terminal-1381992683-line-16">
    <rect x="0" y="391.9" width="1708" height="24.65"/>
            </clipPath>
<clipPath id="terminal-1381992683-line-17">
    <rect x="0" y="416.3" width="1708" height="24.65"/>
            </clipPath>
<clipPath id="terminal-1381992683-line-18">
    <rect x="0" y="440.7" width="1708" height="24.65"/>
            </clipPath>
<clipPath id="terminal-1381992683-line-19">
    <rect x="0" y="465.1" width="1708" height="24.65"/>
            </clipPath>
<clipPath id="terminal-1381992683-line-20">
    <rect x="0" y="489.5" width="1708" height="24.65"/>
            </clipPath>
<clipPath id="terminal-1381992683-line-21">
    <rect x="0" y="513.9" width="1708" height="24.65"/>
            </clipPath>
<clipPath id="terminal-1381992683-line-22">
    <rect x="0" y="538.3" width="1708" height="24.65"/>
            </clipPath>
<clipPath id="terminal-1381992683-line-23">
    <rect x="0" y="562.7" width="1708" height="24.65"/>
            </clipPath>
<clipPath id="terminal-1381992683-line-24">
    <rect x="0" y="587.1" width="1708" height="24.65"/>
            </clipPath>
<clipPath id="terminal-1381992683-line-25">
    <rect x="0" y="611.5" width="1708" height="24.65"/>
            </clipPath>
<clipPath id="terminal-1381992683-line-26">
    <rect x="0" y="635.9" width="1708" height="24.65"/>
            </clipPath>
<clipPath id="terminal-1381992683-line-27">
    <rect x="0" y="660.3" width="1708" height="24.65"/>
            </clipPath>
<clipPath id="terminal-1381992683-line-28">
    <rect x="0" y="684.7" width="1708" height="24.65"/>
            </clipPath>
<clipPath id="terminal-1381992683-line-29">
    <rect x="0" y="709.1" width="1708" height="24.65"/>
            </clipPath>
<clipPath id="terminal-1381992683-line-30">
    <rect x="0" y="733.5" width="1708" height="24.65"/>
            </clipPath>
<clipPath id="terminal-1381992683-line-31">
    <rect x="0" y="757.9" width="1708" height="24.65"/>
            </clipPath>
<clipPath id="terminal-1381992683-line-32">
    <rect x="0" y="782.3" width="1708" height="24.65"/>
            </clipPath>
<clipPath id="terminal-1381992683-line-33">
    <rect x="0" y="806.7" width="1708" height="24.65"/>
            </clipPath>
<clipPath id="terminal-1381992683-line-34">
    <rect x="0" y="831.1" width="1708" height="24.65"/>
            </clipPath>
<clipPath id="terminal-1381992683-line-35">
    <rect x="0" y="855.5" width="1708" height="24.65"/>
            </clipPath>
<clipPath id="terminal-1381992683-line-36">
    <rect x="0" y="879.9" width="1708" height="24.65"/>
            </clipPath>
    </defs>

    <rect fill="#292929" stroke="rgba(255,255,255,0.35)" stroke-width="1" x="1" y="1" width="1724" height="975.2" rx="8"/><text class="terminal-1381992683-title" fill="#c5c8c6" text-anchor="middle" x="862" y="27">LogViewerApp</text>
            <g transform="translate(26,22)">
            <circle cx="0" cy="0" r="7" fill="#ff5f57"/>
            <circle cx="22" cy="0" r="7" fill="#febc2e"/>
            <circle cx="44" cy="0" r="7" fill="#28c840"/>
            </g>
        
    <g transform="translate(9, 41)" clip-path="url(#terminal-1381992683-clip-terminal)">
    <rect fill="#1e1e1e" x="0" y="1.5" width="12.2" height="24.65" shape-rendering="crispEdges"/><rect fill="#1e1e1e" x="12.2" y="1.5" width="134.2" height="24.65" shape-rendering="crispEdges"/><rect fill="#1e1e1e" x="146.4" y="1.5" width="12.2" height="24.65" shape-rendering="crispEdges"/><rect fill="#1e1e1e" x="158.6" y="1.5" width="305" height="24.65" shape-rendering="crispEdges"/><rect fill="#1e1e1e" x="463.6" y="1.5" width="24.4" height="24.65" shape-rendering="crispEdges"/><rect fill="#0178d4" x="488" y="1.5" width="12.2" height="24.65" shape-rendering="crispEdges"/><rect fill="#272727" x="500.2" y="1.5" width="683.2" height="24.65" shape-rendering="crispEdges"/><rect fill="#1e1e1e" x="1183.4" y="1.5" width="12.2" height="24.65" shape-rendering="crispEdges"/><rect fill="#1e1e1e" x="1195.6" y="1.5" width="24.4" height="24.65" shape-rendering="crispEdges"/><rect fill="#1e1e1e" x="1220" y="1.5" width="24.4" height="24.65" shape-rendering="crispEdges"/><rect fill="#1e1e1e" x="1244.4" y="1.5" width="24.4" height="24.65" shape-rendering="crispEdges"/><rect fill="#1e1e1e" x="1268.8" y="1.5" width="24.4" height="24.65" shape-rendering="crispEdges"/><rect fill="#1e1e1e" x="1293.2" y="1.5" width="24.4" height="24.65" shape-rendering="crispEdges"/><rect fill="#1e1e1e" x="1317.6" y="1.5" width="24.4" height="24.65" shape-rendering="crispEdges"/><rect fill="#1e1e1e" x="1342" y="1.5" width="24.4" height="24.65" shape-rendering="crispEdges"/><rect fill="#1e1e1e" x="1366.4" y="1.5" width="36.6" height="24.65" shape-rendering="crispEdges"/><rect fill="#1e1e1e" x="1403" y="1.5" width="24.4" height="24.65" shape-rendering="crispEdges"/><rect fill="#1e1e1e" x="1427.4" y="1.5" width="24.4" height="24.65" shape-rendering="crispEdges"/><rect fill="#1e1e1e" x="1451.8" y="1.5" width="134.2" height="24.65" shape-rendering="crispEdges"/><rect fill="#1e1e1e" x="1586" y="1.5" width="12.2" height="24.65" shape-rendering="crispEdges"/><rect fill="#1e1e1e" x="1598.2" y="1.5" width="97.6" height="24.65" shape-rendering="crispEdges"/><rect fill="#1e1e1e" x="1695.8" y="1.5" width="12.2" height="24.65" shape-rendering="crispEdges"/><rect fill="#1e1e1e" x="0" y="25.9" width="12.2" height="24.65" shape-rendering="crispEdges"/><rect fill="#1e1e1e" x="12.2" y="25.9" width="475.8" height="24.65" shape-rendering="crispEdges"/><rect fill="#0178d4" x="488" y="25.9" width="12.2" height="24.65" shape-rendering="crispEdges"/><rect fill="#272727" x="500.2" y="25.9" width="24.4" height="24.65" shape-rendering="crispEdges"/><rect fill="#e0e0e0" x="524.6" y="25.9" width="12.2" height="24.65" shape-rendering="crispEdges"/><rect fill="#272727" x="536.8" y="25.9" width="73.2" height="24.65" shape-rendering="crispEdges"/><rect fill="#272727" x="610" y="25.9" width="549" height="24.65" shape-rendering="crispEdges"/><rect fill="#272727" x="1159" y="25.9" width="24.4" height="24.65" shape-rendering="crispEdges"/><rect fill="#1e1e1e" x="1183.4" y="25.9" width="12.2" height="24.65" shape-rendering="crispEdges"/><rect fill="#1e1e1e" x="1195.6" y="25.9" width="500.2" height="24.65" shape-rendering="crispEdges"/><rect fill="#1e1e1e" x="1695.8" y="25.9" width="12.2" height="24.65" shape-rendering="crispEdges"/><rect fill="#1e1e1e" x="0" y="50.3" width="1708" height="24.65" shape-rendering="crispEdges"/><rect fill="#242f38" x="0" y="74.7" width="305" height="24.65" shape-rendering="crispEdges"/><rect fill="#242f38" x="305" y="74.7" width="122" height="24.65" shape-rendering="crispEdges"/><rect fill="#242f38" x="427" y="74.7" width="122" height="24.65" shape-rendering="crispEdges"/><rect fill="#242f38" x="549" y="74.7" width="256.2" height="24.65" shape-rendering="crispEdges"/><rect fill="#242f38" x="805.2" y="74.7" width="878.4" height="24.65" shape-rendering="crispEdges"/><rect fill="#242f38" x="1683.6" y="74.7" width="24.4" height="24.65" shape-rendering="crispEdges"/><rect fill="#153854" x="0" y="99.1" width="12.2" height="24.65" shape-rendering="crispEdges"/><rect fill="#153854" x="12.2" y="99.1" width="280.6" height="24.65" shape-rendering="crispEdges"/><rect fill="#153854" x="292.8" y="99.1" width="12.2" height="24.65" shape-rendering="crispEdges"/><rect fill="#153854" x="305" y="99.1" width="122" height="24.65" shape-rendering="crispEdges"/><rect fill="#153854" x="427" y="99.1" width="122" height="24.65" shape-rendering="crispEdges"/><rect fill="#153854" x="549" y="99.1" width="12.2" height="24.65" shape-rendering="crispEdges"/><rect fill="#153854" x="561.2" y="99.1" width="231.8" height="24.65" shape-rendering="crispEdges"/><rect fill="#153854" x="793" y="99.1" width="12.2" height="24.65" shape-rendering="crispEdges"/><rect fill="#153854" x="805.2" y="99.1" width="878.4" height="24.65" shape-rendering="crispEdges"/><rect fill="#153854" x="1683.6" y="99.1" width="24.4" height="24.65" shape-rendering="crispEdges"/><rect fill="#1e1e1e" x="0" y="123.5" width="12.2" height="24.65" shape-rendering="crispEdges"/><rect fill="#1e1e1e" x="12.2" y="123.5" width="280.6" height="24.65" shape-rendering="crispEdges"/><rect fill="#1e1e1e" x="292.8" y="123.5" width="12.2" height="24.65" shape-rendering="crispEdges"/><rect fill="#1e1e1e" x="305" y="123.5" width="12.2" height="24.65" shape-rendering="crispEdges"/><rect fill="#1e1e1e" x="317.2" y="123.5" width="61" height="24.65" shape-rendering="crispEdges"/><rect fill="#1e1e1e" x="378.2" y="123.5" width="48.8" height="24.65" shape-rendering="crispEdges"/><rect fill="#1e1e1e" x="427" y="123.5" width="12.2" height="24.65" shape-rendering="crispEdges"/><rect fill="#1e1e1e" x="439.2" y="123.5" width="97.6" height="24.65" shape-rendering="crispEdges"/><rect fill="#1e1e1e" x="536.8" y="123.5" width="12.2" height="24.65" shape-rendering="crispEdges"/><rect fill="#1e1e1e" x="549" y="123.5" width="12.2" height="24.65" shape-rendering="crispEdges"/><rect fill="#1e1e1e" x="561.2" y="123.5" width="231.8" height="24.65" shape-rendering="crispEdges"/><rect fill="#1e1e1e" x="793" y="123.5" width="12.2" height="24.65" shape-rendering="crispEdges"/><rect fill="#1e1e1e" x="805.2" y="123.5" width="12.2" height="24.65" shape-rendering="crispEdges"/><rect fill="#1e1e1e" x="817.4" y="123.5" width="756.4" height="24.65" shape-rendering="crispEdges"/><rect fill="#1e1e1e" x="1573.8" y="123.5" width="109.8" height="24.65" shape-rendering="crispEdges"/><rect fill="#1e1e1e" x="1683.6" y="123.5" width="24.4" height="24.65" shape-rendering="crispEdges"/><rect fill="#171717" x="0" y="147.9" width="12.2" height="24.65" shape-rendering="crispEdges"/><rect fill="#171717" x="12.2" y="147.9" width="280.6" height="24.65" shape-rendering="crispEdges"/><rect fill="#171717" x="292.8" y="147.9" width="12.2" height="24.65" shape-rendering="crispEdges"/><rect fill="#171717" x="305" y="147.9" width="12.2" height="24.65" shape-rendering="crispEdges"/><rect fill="#171717" x="317.2" y="147.9" width="97.6" height="24.65" shape-rendering="crispEdges"/><rect fill="#171717" x="414.8" y="147.9" width="12.2" height="24.65" shape-rendering="crispEdges"/><rect fill="#171717" x="427" y="147.9" width="12.2" height="24.65" shape-rendering="crispEdges"/><rect fill="#171717" x="439.2" y="147.9" width="97.6" height="24.65" shape-rendering="crispEdges"/><rect fill="#171717" x="536.8" y="147.9" width="12.2" height="24.65" shape-rendering="crispEdges"/><rect fill="#171717" x="549" y="147.9" width="12.2" height="24.65" shape-rendering="crispEdges"/><rect fill="#171717" x="561.2" y="147.9" width="231.8" height="24.65" shape-rendering="crispEdges"/><rect fill="#171717" x="793" y="147.9" width="12.2" height="24.65" shape-rendering="crispEdges"/><rect fill="#171717" x="805.2" y="147.9" width="12.2" height="24.65" shape-rendering="crispEdges"/><rect fill="#171717" x="817.4" y="147.9" width="854" height="24.65" shape-rendering="crispEdges"/><rect fill="#171717" x="1671.4" y="147.9" width="12.2" height="24.65" shape-rendering="crispEdges"/><rect fill="#171717" x="1683.6" y="147.9" width="24.4" height="24.65" shape-rendering="crispEdges"/><rect fill="#1e1e1e" x="0" y="172.3" width="12.2" height="24.65" shape-rendering="crispEdges"/><rect fill="#1e1e1e" x="12.2" y="172.3" width="280.6" height="24.65" shape-rendering="crispEdges"/><rect fill="#1e1e1e" x="292.8" y="172.3" width="12.2" height="24.65" shape-rendering="crispEdges"/><rect fill="#1e1e1e" x="305" y="172.3" width="12.2" height="24.65" shape-rendering="crispEdges"/><rect fill="#1e1e1e" x="317.2" y="172.3" width="61" height="24.65" shape-rendering="crispEdges"/><rect fill="#1e1e1e" x="378.2" y="172.3" width="48.8" height="24.65" shape-rendering="crispEdges"/><rect fill="#1e1e1e" x="427" y="172.3" width="12.2" height="24.65" shape-rendering="crispEdges"/><rect fill="#1e1e1e" x="439.2" y="172.3" width="97.6" height="24.65" shape-rendering="crispEdges"/><rect fill="#1e1e1e" x="536.8" y="172.3" width="12.2" height="24.65" shape-rendering="crispEdges"/><rect fill="#1e1e1e" x="549" y="172.3" width="12.2" height="24.65" shape-rendering="crispEdges"/><rect fill="#1e1e1e" x="561.2" y="172.3" width="231.8" height="24.65" shape-rendering="crispEdges"/><rect fill="#1e1e1e" x="793" y="172.3" width="12.2" height="24.65" shape-rendering="crispEdges"/><rect fill="#1e1e1e" x="805.2" y="172.3" width="12.2" height="24.65" shape-rendering="crispEdges"/><rect fill="#1e1e1e" x="817.4" y="172.3" width="658.8" height="24.65" shape-rendering="crispEdges"/><rect fill="#1e1e1e" x="1476.2" y="172.3" width="207.4" height="24.65" shape-rendering="crispEdges"/><rect fill="#1e1e1e" x="1683.6" y="172.3" width="24.4" height="24.65" shape-rendering="crispEdges"/><rect fill="#171717" x="0" y="196.7" width="12.2" height="24.65" shape-rendering="crispEdges"/><rect fill="#171717" x="12.2" y="196.7" width="280.6" height="24.65" shape-rendering="crispEdges"/><rect fill="#171717" x="292.8" y="196.7" width="12.2" height="24.65" shape-rendering="crispEdges"/><rect fill="#171717" x="305" y="196.7" width="12.2" height="24.65" shape-rendering="crispEdges"/><rect fill="#171717" x="317.2" y="196.7" width="61" height="24.65" shape-rendering="crispEdges"/><rect fill="#171717" x="378.2" y="196.7" width="48.8" height="24.65" shape-rendering="crispEdges"/><rect fill="#171717" x="427" y="196.7" width="12.2" height="24.65" shape-rendering="crispEdges"/><rect fill="#171717" x="439.2" y="196.7" width="97.6" height="24.65" shape-rendering="crispEdges"/><rect fill="#171717" x="536.8" y="196.7" width="12.2" height="24.65" shape-rendering="crispEdges"/><rect fill="#171717" x="549" y="196.7" width="12.2" height="24.65" shape-rendering="crispEdges"/><rect fill="#171717" x="561.2" y="196.7" width="231.8" height="24.65" shape-rendering="crispEdges"/><rect fill="#171717" x="793" y="196.7" width="12.2" height="24.65" shape-rendering="crispEdges"/><rect fill="#171717" x="805.2" y="196.7" width="12.2" height="24.65" shape-rendering="crispEdges"/><rect fill="#171717" x="817.4" y="196.7" width="719.8" height="24.65" shape-rendering="crispEdges"/><rect fill="#171717" x="1537.2" y="196.7" width="146.4" height="24.65" shape-rendering="crispEdges"/><rect fill="#171717" x="1683.6" y="196.7" width="24.4" height="24.65" shape-rendering="crispEdges"/><rect fill="#1e1e1e" x="0" y="221.1" width="1708" height="24.65" shape-rendering="crispEdges"/><rect fill="#1e1e1e" x="0" y="245.5" width="1708" height="24.65" shape-rendering="crispEdges"/><rect fill="#1e1e1e" x="0" y="269.9" width="1708" height="24.65" shape-rendering="crispEdges"/><rect fill="#1e1e1e" x="0" y="294.3" width="1708" height="24.65" shape-rendering="crispEdges"/><rect fill="#1e1e1e" x="0" y="318.7" width="1708" height="24.65" shape-rendering="crispEdges"/><rect fill="#1e1e1e" x="0" y="343.1" width="1708" height="24.65" shape-rendering="crispEdges"/><rect fill="#1e1e1e" x="0" y="367.5" width="1708" height="24.65" shape-rendering="crispEdges"/><rect fill="#1e1e1e" x="0" y="391.9" width="1708" height="24.65" shape-rendering="crispEdges"/><rect fill="#1e1e1e" x="0" y="416.3" width="1708" height="24.65" shape-rendering="crispEdges"/><rect fill="#1e1e1e" x="0" y="440.7" width="1708" height="24.65" shape-rendering="crispEdges"/><rect fill="#1e1e1e" x="0" y="465.1" width="1708" height="24.65" shape-rendering="crispEdges"/><rect fill="#1e1e1e" x="0" y="489.5" width="1708" height="24.65" shape-rendering="crispEdges"/><rect fill="#1e1e1e" x="0" y="513.9" width="1708" height="24.65" shape-rendering="crispEdges"/><rect fill="#1e1e1e" x="0" y="538.3" width="1708" height="24.65" shape-rendering="crispEdges"/><rect fill="#1e1e1e" x="0" y="562.7" width="1708" height="24.65" shape-rendering="crispEdges"/><rect fill="#1e1e1e" x="0" y="587.1" width="1708" height="24.65" shape-rendering="crispEdges"/><rect fill="#1e1e1e" x="0" y="611.5" width="1708" height="24.65" shape-rendering="crispEdges"/><rect fill="#1e1e1e" x="0" y="635.9" width="1708" height="24.65" shape-rendering="crispEdges"/><rect fill="#1e1e1e" x="0" y="660.3" width="1708" height="24.65" shape-rendering="crispEdges"/><rect fill="#1e1e1e" x="0" y="684.7" width="1708" height="24.65" shape-rendering="crispEdges"/><rect fill="#1e1e1e" x="0" y="709.1" width="1708" height="24.65" shape-rendering="crispEdges"/><rect fill="#1e1e1e" x="0" y="733.5" width="1708" height="24.65" shape-rendering="crispEdges"/><rect fill="#1e1e1e" x="0" y="757.9" width="1708" height="24.65" shape-rendering="crispEdges"/><rect fill="#1e1e1e" x="0" y="782.3" width="1708" height="24.65" shape-rendering="crispEdges"/><rect fill="#1e1e1e" x="0" y="806.7" width="1708" height="24.65" shape-rendering="crispEdges"/><rect fill="#0d0d0d" x="0" y="831.1" width="1708" height="24.65" shape-rendering="crispEdges"/><rect fill="#0d0d0d" x="0" y="855.5" width="12.2" height="24.65" shape-rendering="crispEdges"/><rect fill="#0d0d0d" x="12.2" y="855.5" width="85.4" height="24.65" shape-rendering="crispEdges"/><rect fill="#0d0d0d" x="97.6" y="855.5" width="12.2" height="24.65" shape-rendering="crispEdges"/><rect fill="#0d0d0d" x="109.8" y="855.5" width="134.2" height="24.65" shape-rendering="crispEdges"/><rect fill="#0d0d0d" x="244" y="855.5" width="1451.8" height="24.65" shape-rendering="crispEdges"/><rect fill="#0d0d0d" x="1695.8" y="855.5" width="12.2" height="24.65" shape-rendering="crispEdges"/><rect fill="#0d0d0d" x="0" y="879.9" width="12.2" height="24.65" shape-rendering="crispEdges"/><rect fill="#0d0d0d" x="12.2" y="879.9" width="1683.6" height="24.65" shape-rendering="crispEdges"/><rect fill="#0d0d0d" x="1695.8" y="879.9" width="12.2" height="24.65" shape-rendering="crispEdges"/><rect fill="#242f38" x="0" y="904.3" width="1561.6" height="24.65" shape-rendering="crispEdges"/><rect fill="#242f38" x="1561.6" y="904.3" width="12.2" height="24.65" shape-rendering="crispEdges"/><rect fill="#242f38" x="1573.8" y="904.3" width="24.4" height="24.65" shape-rendering="crispEdges"/><rect fill="#242f38" x="1598.2" y="904.3" width="97.6" height="24.65" shape-rendering="crispEdges"/><rect fill="#242f38" x="1695.8" y="904.3" width="12.2" height="24.65" shape-rendering="crispEdges"/>
    <g class="terminal-1381992683-matrix">
    <text class="terminal-1381992683-r2" x="12.2" y="20" textLength="134.2" clip-path="url(#terminal-1381992683-line-0)">PyLogShield</text><text class="terminal-1381992683-r3" x="158.6" y="20" textLength="305" clip-path="url(#terminal-1381992683-line-0)">docs\screenshots\demo.log</text><text class="terminal-1381992683-r4" x="488" y="20" textLength="12.2" clip-path="url(#terminal-1381992683-line-0)">▊</text><text class="terminal-1381992683-r5" x="500.2" y="20" textLength="683.2" clip-path="url(#terminal-1381992683-line-0)">▔▔▔▔▔▔▔▔▔▔▔▔▔▔▔▔▔▔▔▔▔▔▔▔▔▔▔▔▔▔▔▔▔▔▔▔▔▔▔▔▔▔▔▔▔▔▔▔▔▔▔▔▔▔▔▔</text><text class="terminal-1381992683-r5" x="1183.4" y="20" textLength="12.2" clip-path="url(#terminal-1381992683-line-0)">▎</text><text class="terminal-1381992683-r6" x="1220" y="20" textLength="24.4" clip-path="url(#terminal-1381992683-line-0)">1C</text><text class="terminal-1381992683-r6" x="1268.8" y="20" textLength="24.4" clip-path="url(#terminal-1381992683-line-0)">4E</text><text class="terminal-1381992683-r7" x="1317.6" y="20" textLength="24.4" clip-path="url(#terminal-1381992683-line-0)">3W</text><text class="terminal-1381992683-r8" x="1366.4" y="20" textLength="36.6" clip-path="url(#terminal-1381992683-line-0)">14I</text><text class="terminal-1381992683-r9" x="1427.4" y="20" textLength="24.4" clip-path="url(#terminal-1381992683-line-0)">3D</text><text class="terminal-1381992683-r3" x="1451.8" y="20" textLength="134.2" clip-path="url(#terminal-1381992683-line-0)">&#160;&#160;[5&#160;of&#160;25]</text><text class="terminal-1381992683-r3" x="1598.2" y="20" textLength="97.6" clip-path="url(#terminal-1381992683-line-0)">○&#160;STATIC</text><text class="terminal-1381992683-r1" x="1708" y="20" textLength="12.2" clip-path="url(#terminal-1381992683-line-0)">
</text><text class="terminal-1381992683-r4" x="488" y="44.4" textLength="12.2" clip-path="url(#terminal-1381992683-line-1)">▊</text><text class="terminal-1381992683-r11" x="524.6" y="44.4" textLength="12.2" clip-path="url(#terminal-1381992683-line-1)">s</text><text class="terminal-1381992683-r12" x="536.8" y="44.4" textLength="73.2" clip-path="url(#terminal-1381992683-line-1)">earch…</text><text class="terminal-1381992683-r5" x="1183.4" y="44.4" textLength="12.2" clip-path="url(#terminal-1381992683-line-1)">▎</text><text class="terminal-1381992683-r1" x="1708" y="44.4" textLength="12.2" clip-path="url(#terminal-1381992683-line-1)">
</text><text class="terminal-1381992683-r13" x="0" y="68.8" textLength="1708" clip-path="url(#terminal-1381992683-line-2)">────────────────────────────────────────────────────────────────────────────────────────────────────────────────────────────────────────────</text><text class="terminal-1381992683-r1" x="1708" y="68.8" textLength="12.2" clip-path="url(#terminal-1381992683-line-2)">
</text><text class="terminal-1381992683-r14" x="0" y="93.2" textLength="305" clip-path="url(#terminal-1381992683-line-3)">&#160;Timestamp&#160;&#160;&#160;&#160;&#160;&#160;&#160;&#160;&#160;&#160;&#160;&#160;&#160;&#160;&#160;</text><text class="terminal-1381992683-r14" x="305" y="93.2" textLength="122" clip-path="url(#terminal-1381992683-line-3)">&#160;Level&#160;&#160;&#160;&#160;</text><text class="terminal-1381992683-r14" x="427" y="93.2" textLength="122" clip-path="url(#terminal-1381992683-line-3)">&#160;Logger&#160;&#160;&#160;</text><text class="terminal-1381992683-r14" x="549" y="93.2" textLength="256.2" clip-path="url(#terminal-1381992683-line-3)">&#160;Location&#160;&#160;&#160;&#160;&#160;&#160;&#160;&#160;&#160;&#160;&#160;&#160;</text><text class="terminal-1381992683-r14" x="805.2" y="93.2" textLength="878.4" clip-path="url(#terminal-1381992683-line-3)">&#160;Message&#160;&#160;&#160;&#160;&#160;&#160;&#160;&#160;&#160;&#160;&#160;&#160;&#160;&#160;&#160;&#160;&#160;&#160;&#160;&#160;&#160;&#160;&#160;&#160;&#160;&#160;&#160;&#160;&#160;&#160;&#160;&#160;&#160;&#160;&#160;&#160;&#160;&#160;&#160;&#160;&#160;&#160;&#160;&#160;&#160;&#160;&#160;&#160;&#160;&#160;&#160;&#160;&#160;&#160;&#160;&#160;&#160;&#160;&#160;&#160;&#160;&#160;&#160;&#160;</text><text class="terminal-1381992683-r1" x="1708" y="93.2" textLength="12.2" clip-path="url(#terminal-1381992683-line-3)">
</text><text class="terminal-1381992683-r15" x="12.2" y="117.6" textLength="280.6" clip-path="url(#terminal-1381992683-line-4)">2026-05-09&#160;01:47:56.856</text><text class="terminal-1381992683-r10" x="305" y="117.6" textLength="122" clip-path="url(#terminal-1381992683-line-4)">&#160;ERROR&#160;&#160;&#160;&#160;</text><text class="terminal-1381992683-r10" x="427" y="117.6" textLength="122" clip-path="url(#terminal-1381992683-line-4)">&#160;payments&#160;</text><text class="terminal-1381992683-r15" x="561.2" y="117.6" textLength="231.8" clip-path="url(#terminal-1381992683-line-4)">make_screenshots:48</text><text class="terminal-1381992683-r10" x="805.2" y="117.6" textLength="878.4" clip-path="url(#terminal-1381992683-line-4)">&#160;Payment&#160;failed&#160;order_id=ORD-002&#160;reason=card_declined&#160;gateway=stripe&#160;&#160;&#160;&#160;</text><text class="terminal-1381992683-r1" x="1708" y="117.6" textLength="12.2" clip-path="url(#terminal-1381992683-line-4)">
</text><text class="terminal-1381992683-r16" x="12.2" y="142" textLength="280.6" clip-path="url(#terminal-1381992683-line-5)">2026-05-09&#160;01:47:56.872</text><text class="terminal-1381992683-r17" x="317.2" y="142" textLength="61" clip-path="url(#terminal-1381992683-line-5)">ERROR</text><text class="terminal-1381992683-r17" x="439.2" y="142" textLength="97.6" clip-path="url(#terminal-1381992683-line-5)">payments</text><text class="terminal-1381992683-r16" x="561.2" y="142" textLength="231.8" clip-path="url(#terminal-1381992683-line-5)">make_screenshots:48</text><text class="terminal-1381992683-r17" x="817.4" y="142" textLength="756.4" clip-path="url(#terminal-1381992683-line-5)">Payment&#160;failed&#160;order_id=ORD-002&#160;reason=card_declined&#160;attempt=1</text><text class="terminal-1381992683-r1" x="1708" y="142" textLength="12.2" clip-path="url(#terminal-1381992683-line-5)">
</text><text class="terminal-1381992683-r18" x="12.2" y="166.4" textLength="280.6" clip-path="url(#terminal-1381992683-line-6)">2026-05-09&#160;01:47:56.872</text><text class="terminal-1381992683-r19" x="317.2" y="166.4" textLength="97.6" clip-path="url(#terminal-1381992683-line-6)">CRITICAL</text><text class="terminal-1381992683-r19" x="439.2" y="166.4" textLength="97.6" clip-path="url(#terminal-1381992683-line-6)">payments</text><text class="terminal-1381992683-r18" x="561.2" y="166.4" textLength="231.8" clip-path="url(#terminal-1381992683-line-6)">make_screenshots:48</text><text class="terminal-1381992683-r19" x="817.4" y="166.4" textLength="854" clip-path="url(#terminal-1381992683-line-6)">Payment&#160;gateway&#160;unreachable&#160;host=api.stripe.com&#160;retries_exhausted=true</text><text class="terminal-1381992683-r1" x="1708" y="166.4" textLength="12.2" clip-path="url(#terminal-1381992683-line-6)">
</text><text class="terminal-1381992683-r16" x="12.2" y="190.8" textLength="280.6" clip-path="url(#terminal-1381992683-line-7)">2026-05-09&#160;01:47:56.872</text><text class="terminal-1381992683-r17" x="317.2" y="190.8" textLength="61" clip-path="url(#terminal-1381992683-line-7)">ERROR</text><text class="terminal-1381992683-r17" x="439.2" y="190.8" textLength="97.6" clip-path="url(#terminal-1381992683-line-7)">payments</text><text class="terminal-1381992683-r16" x="561.2" y="190.8" textLength="231.8" clip-path="url(#terminal-1381992683-line-7)">make_screenshots:48</text><text class="terminal-1381992683-r17" x="817.4" y="190.8" textLength="658.8" clip-path="url(#terminal-1381992683-line-7)">Payment&#160;failed&#160;order_id=ORD-003&#160;reason=gateway_timeout</text><text class="terminal-1381992683-r1" x="1708" y="190.8" textLength="12.2" clip-path="url(#terminal-1381992683-line-7)">
</text><text class="terminal-1381992683-r18" x="12.2" y="215.2" textLength="280.6" clip-path="url(#terminal-1381992683-line-8)">2026-05-09&#160;01:47:56.872</text><text class="terminal-1381992683-r17" x="317.2" y="215.2" textLength="61" clip-path="url(#terminal-1381992683-line-8)">ERROR</text><text class="terminal-1381992683-r17" x="439.2" y="215.2" textLength="97.6" clip-path="url(#terminal-1381992683-line-8)">payments</text><text class="terminal-1381992683-r18" x="561.2" y="215.2" textLength="231.8" clip-path="url(#terminal-1381992683-line-8)">make_screenshots:48</text><text class="terminal-1381992683-r17" x="817.4" y="215.2" textLength="719.8" clip-path="url(#terminal-1381992683-line-8)">DB&#160;query&#160;timeout&#160;query=SELECT&#160;duration_ms=5002&#160;table=orders</text><text class="terminal-1381992683-r1" x="1708" y="215.2" textLength="12.2" clip-path="url(#terminal-1381992683-line-8)">
</text><text class="terminal-1381992683-r1" x="1708" y="239.6" textLength="12.2" clip-path="url(#terminal-1381992683-line-9)">
</text><text class="terminal-1381992683-r1" x="1708" y="264" textLength="12.2" clip-path="url(#terminal-1381992683-line-10)">
</text><text class="terminal-1381992683-r1" x="1708" y="288.4" textLength="12.2" clip-path="url(#terminal-1381992683-line-11)">
</text><text class="terminal-1381992683-r1" x="1708" y="312.8" textLength="12.2" clip-path="url(#terminal-1381992683-line-12)">
</text><text class="terminal-1381992683-r1" x="1708" y="337.2" textLength="12.2" clip-path="url(#terminal-1381992683-line-13)">
</text><text class="terminal-1381992683-r1" x="1708" y="361.6" textLength="12.2" clip-path="url(#terminal-1381992683-line-14)">
</text><text class="terminal-1381992683-r1" x="1708" y="386" textLength="12.2" clip-path="url(#terminal-1381992683-line-15)">
</text><text class="terminal-1381992683-r1" x="1708" y="410.4" textLength="12.2" clip-path="url(#terminal-1381992683-line-16)">
</text><text class="terminal-1381992683-r1" x="1708" y="434.8" textLength="12.2" clip-path="url(#terminal-1381992683-line-17)">
</text><text class="terminal-1381992683-r1" x="1708" y="459.2" textLength="12.2" clip-path="url(#terminal-1381992683-line-18)">
</text><text class="terminal-1381992683-r1" x="1708" y="483.6" textLength="12.2" clip-path="url(#terminal-1381992683-line-19)">
</text><text class="terminal-1381992683-r1" x="1708" y="508" textLength="12.2" clip-path="url(#terminal-1381992683-line-20)">
</text><text class="terminal-1381992683-r1" x="1708" y="532.4" textLength="12.2" clip-path="url(#terminal-1381992683-line-21)">
</text><text class="terminal-1381992683-r1" x="1708" y="556.8" textLength="12.2" clip-path="url(#terminal-1381992683-line-22)">
</text><text class="terminal-1381992683-r1" x="1708" y="581.2" textLength="12.2" clip-path="url(#terminal-1381992683-line-23)">
</text><text class="terminal-1381992683-r1" x="1708" y="605.6" textLength="12.2" clip-path="url(#terminal-1381992683-line-24)">
</text><text class="terminal-1381992683-r1" x="1708" y="630" textLength="12.2" clip-path="url(#terminal-1381992683-line-25)">
</text><text class="terminal-1381992683-r1" x="1708" y="654.4" textLength="12.2" clip-path="url(#terminal-1381992683-line-26)">
</text><text class="terminal-1381992683-r1" x="1708" y="678.8" textLength="12.2" clip-path="url(#terminal-1381992683-line-27)">
</text><text class="terminal-1381992683-r1" x="1708" y="703.2" textLength="12.2" clip-path="url(#terminal-1381992683-line-28)">
</text><text class="terminal-1381992683-r1" x="1708" y="727.6" textLength="12.2" clip-path="url(#terminal-1381992683-line-29)">
</text><text class="terminal-1381992683-r1" x="1708" y="752" textLength="12.2" clip-path="url(#terminal-1381992683-line-30)">
</text><text class="terminal-1381992683-r1" x="1708" y="776.4" textLength="12.2" clip-path="url(#terminal-1381992683-line-31)">
</text><text class="terminal-1381992683-r1" x="1708" y="800.8" textLength="12.2" clip-path="url(#terminal-1381992683-line-32)">
</text><text class="terminal-1381992683-r1" x="1708" y="825.2" textLength="12.2" clip-path="url(#terminal-1381992683-line-33)">
</text><text class="terminal-1381992683-r20" x="0" y="849.6" textLength="1708" clip-path="url(#terminal-1381992683-line-34)">────────────────────────────────────────────────────────────────────────────────────────────────────────────────────────────────────────────</text><text class="terminal-1381992683-r1" x="1708" y="849.6" textLength="12.2" clip-path="url(#terminal-1381992683-line-34)">
</text><text class="terminal-1381992683-r16" x="12.2" y="874" textLength="85.4" clip-path="url(#terminal-1381992683-line-35)">Filters</text><text class="terminal-1381992683-r21" x="109.8" y="874" textLength="134.2" clip-path="url(#terminal-1381992683-line-35)">none&#160;active</text><text class="terminal-1381992683-r1" x="1708" y="874" textLength="12.2" clip-path="url(#terminal-1381992683-line-35)">
</text><text class="terminal-1381992683-r1" x="1708" y="898.4" textLength="12.2" clip-path="url(#terminal-1381992683-line-36)">
</text><text class="terminal-1381992683-r22" x="1561.6" y="922.8" textLength="12.2" clip-path="url(#terminal-1381992683-line-37)">▏</text><text class="terminal-1381992683-r23" x="1573.8" y="922.8" textLength="24.4" clip-path="url(#terminal-1381992683-line-37)">^p</text><text class="terminal-1381992683-r10" x="1598.2" y="922.8" textLength="97.6" clip-path="url(#terminal-1381992683-line-37)">&#160;palette</text>
    </g>
    </g>
</svg>
